<?xml version="1.0" encoding="UTF-8"?>
<svg id="Layer_2" data-name="Layer 2" xmlns="http://www.w3.org/2000/svg" viewBox="0 0 96 79.5">
  <defs>
    <style>
      .cls-1 {
        fill: #fff;
      }
    </style>
  </defs>
  <polygon class="cls-1" points="77.59 14.86 67.33 14.86 18.05 14.86 17.97 14.94 17.97 16.22 67.33 16.22 77.67 16.22 77.67 14.94 77.59 14.86"/>
  <g>
    <path class="cls-1" d="M15.41,17.47v44.82c.43.04.89-.05,1.31.05V17.42c-.42.1-.87.01-1.31.05Z"/>
    <g>
      <polygon class="cls-1" points="67.33 63.54 17.97 63.54 17.97 64.82 18.05 64.9 67.33 64.9 77.59 64.9 77.67 64.82 77.67 63.54 67.33 63.54"/>
      <path class="cls-1" d="M78.92,17.42v44.92c.42-.1.87,0,1.31-.05V17.47c-.43-.04-.89.05-1.31-.05Z"/>
    </g>
  </g>
  <g>
    <g>
      <rect class="cls-1" x="31.98" y="29.64" width="1.31" height="20.65"/>
      <rect class="cls-1" x="34.54" y="51.49" width="26.31" height="1.36"/>
      <rect class="cls-1" x="34.54" y="27.08" width="26.31" height="1.36"/>
      <rect class="cls-1" x="62.21" y="29.64" width="1.31" height="20.65"/>
    </g>
    <g>
      <path class="cls-1" d="M40.69,38.29h-1.96l-.32.94h-1.04l1.77-4.94h1.15l1.77,4.94h-1.05l-.32-.94ZM40.42,37.5l-.71-2.06-.71,2.06h1.43Z"/>
      <path class="cls-1" d="M44.23,34.3v3.05c0,.33.09.59.26.77.17.18.42.26.74.26s.57-.09.74-.26c.17-.18.26-.43.26-.77v-3.05h1v3.05c0,.42-.09.77-.27,1.06-.18.29-.42.51-.73.65s-.64.22-1.01.22-.7-.07-1-.22-.54-.36-.71-.65c-.17-.29-.26-.64-.26-1.06v-3.05h.99Z"/>
      <path class="cls-1" d="M52.07,34.3v.8h-1.31v4.13h-.99v-4.13h-1.31v-.8h3.62Z"/>
      <path class="cls-1" d="M54.34,38.95c-.39-.22-.69-.52-.92-.9s-.34-.82-.34-1.3.11-.91.34-1.3.53-.68.92-.9c.39-.22.81-.32,1.27-.32s.89.11,1.28.32c.38.22.69.52.91.9s.34.82.34,1.3-.11.92-.34,1.3-.53.68-.92.9-.81.32-1.27.32-.89-.11-1.27-.32ZM56.4,38.19c.23-.13.4-.33.53-.58.13-.25.19-.54.19-.87s-.06-.62-.19-.87-.3-.44-.53-.57c-.23-.13-.49-.2-.78-.2s-.56.07-.79.2c-.23.13-.41.32-.53.57-.13.25-.19.54-.19.87s.06.62.19.87c.13.25.31.44.53.58.23.13.49.2.79.2s.56-.07.78-.2Z"/>
      <path class="cls-1" d="M41.02,40.55v.8h-1.31v4.13h-.99v-4.13h-1.31v-.8h3.62Z"/>
      <path class="cls-1" d="M43.29,45.21c-.39-.22-.69-.52-.92-.9s-.34-.82-.34-1.3.11-.91.34-1.3.53-.68.92-.9c.39-.22.81-.32,1.27-.32s.89.11,1.28.32c.38.22.69.52.91.9s.34.82.34,1.3-.11.92-.34,1.3-.53.68-.92.9-.81.32-1.27.32-.89-.11-1.27-.32ZM45.35,44.45c.23-.13.4-.33.53-.58.13-.25.19-.54.19-.87s-.06-.62-.19-.87-.3-.44-.53-.57c-.23-.13-.49-.2-.78-.2s-.56.07-.79.2c-.23.13-.41.32-.53.57-.13.25-.19.54-.19.87s.06.62.19.87c.13.25.31.44.53.58.23.13.49.2.79.2s.56-.07.78-.2Z"/>
      <path class="cls-1" d="M49.33,40.55v3.05c0,.33.09.59.26.77.17.18.42.26.74.26s.57-.09.74-.26c.17-.18.26-.43.26-.77v-3.05h1v3.05c0,.42-.09.77-.27,1.06-.18.29-.42.51-.73.65s-.64.22-1.01.22-.7-.07-1-.22-.54-.36-.71-.65c-.17-.29-.26-.64-.26-1.06v-3.05h.99Z"/>
      <path class="cls-1" d="M56.35,45.49l-1.09-1.92h-.47v1.92h-.99v-4.93h1.85c.38,0,.71.07.98.2.27.13.47.32.6.54.13.23.2.48.2.77,0,.32-.09.62-.28.88-.19.26-.47.44-.84.54l1.18,2h-1.14ZM54.8,42.82h.83c.27,0,.47-.06.6-.19.13-.13.2-.31.2-.54s-.07-.4-.2-.53c-.13-.12-.33-.19-.6-.19h-.83v1.45Z"/>
    </g>
    <path class="cls-1" d="M73.57,39.75c-1.08-1.21-2.19-2.4-3.29-3.6-.17-.19-.35-.38-.52-.57h-1.52l3.75,4.2-3.75,4.14h1.53l3.81-4.17Z"/>
    <path class="cls-1" d="M22.25,39.75c1.08-1.21,2.19-2.4,3.29-3.6.17-.19.35-.38.52-.57h1.52s-3.75,4.2-3.75,4.2l3.75,4.14h-1.53s-3.81-4.17-3.81-4.17Z"/>
  </g>
</svg>