<?xml version="1.0" encoding="UTF-8"?>
<svg id="Layer_2" data-name="Layer 2" xmlns="http://www.w3.org/2000/svg" viewBox="0 0 96 79.5">
  <defs>
    <style>
      .cls-1, .cls-2 {
        fill: #fff;
      }

      .cls-2 {
        fill-rule: evenodd;
      }
    </style>
  </defs>
  <polygon class="cls-1" points="77.59 14.86 67.33 14.86 18.05 14.86 17.97 14.94 17.97 16.22 67.33 16.22 77.67 16.22 77.67 14.94 77.59 14.86"/>
  <g>
    <path class="cls-1" d="M15.41,17.47v44.82c.43.04.89-.05,1.31.05V17.42c-.42.1-.87.01-1.31.05Z"/>
    <g>
      <polygon class="cls-1" points="67.33 63.54 17.97 63.54 17.97 64.82 18.05 64.9 67.33 64.9 77.59 64.9 77.67 64.82 77.67 63.54 67.33 63.54"/>
      <path class="cls-1" d="M78.92,17.42v44.92c.42-.1.87,0,1.31-.05V17.47c-.43-.04-.89.05-1.31-.05Z"/>
    </g>
  </g>
  <g>
    <path class="cls-2" d="M45.17,49.01h0c-.21,0-.31-.1-.52-.21l-4.35-4.37c-.21-.21-.21-.62,0-.94,0,0,13.68-13.63,14.51-14.57,1.45-1.35,6.42-2.29,6.94-2.39.21,0,.41.1.52.21.21.1.21.31.21.52-.1.62-.93,5.62-2.38,6.97l-14.51,14.57c-.1.1-.31.21-.41.21h0ZM41.65,44.01l3.52,3.43,13.99-14.05c.83-.73,1.55-3.43,1.86-5.41-1.97.42-4.56,1.14-5.28,1.87-.83.73-11.71,11.76-14.09,14.15h0Z"/>
    <path class="cls-2" d="M46.92,47.28c-.21,0-.31-.11-.52-.21l-4.38-4.46c-.21-.21-.21-.64,0-.95.31-.21.63-.21.94,0l4.38,4.56c.21.21.21.64,0,.85-.1.11-.31.21-.42.21h0Z"/>
    <path class="cls-2" d="M45.13,55.13h-.31c-.21-.1-.42-.42-.31-.62l.84-7.08c0-.31.31-.52.63-.52.42.1.63.42.63.73l-.63,5.21,3.13-3.12c.52-.62,1.36-1.77,1.57-2.4.21-.52.42-1.87.42-5.62,0-.31.31-.62.63-.62.42,0,.63.31.63.62,0,3.02-.1,5-.42,5.94-.31,1.04-1.36,2.4-1.98,2.92l-4.39,4.48c-.1.1-.31.1-.42.1h0Z"/>
    <path class="cls-2" d="M34.51,44.61c-.21,0-.42-.21-.52-.42-.21-.21-.1-.52.1-.73l4.37-4.39c.62-.63,1.87-1.67,2.91-1.98,1.14-.42,3.85-.42,5.72-.42h.21c.31,0,.62.31.62.63s-.31.63-.62.63h-.21c-2.81,0-4.58.1-5.41.31-.62.31-1.67,1.04-2.29,1.67l-3.23,3.13,5.31-.63c.31,0,.62.21.73.63,0,.31-.21.63-.62.63l-6.97.94h-.1Z"/>
    <path class="cls-2" d="M34.98,54.74c-.1,0-.31,0-.42-.1-.21-.21-.21-.42-.21-.62.21-.62,1.56-6.03,2.81-7.38,1.36-1.35,2.92-1.46,4.07-.42.21.21.21.62,0,.83-.31.31-.73.31-.94,0-.83-.83-1.98.21-2.19.42-.73.73-1.67,3.64-2.19,5.82,2.19-.62,5-1.56,5.73-2.29.42-.42.73-.94.73-1.46,0-.21-.1-.52-.31-.73-.21-.21-.21-.62,0-.83.21-.31.63-.31.94,0,.42.42.63.94.63,1.56,0,.83-.42,1.66-1.15,2.39-1.25,1.25-6.67,2.7-7.3,2.81h-.21Z"/>
  </g>
</svg>