<?xml version="1.0" encoding="UTF-8"?>
<svg id="Layer_2" data-name="Layer 2" xmlns="http://www.w3.org/2000/svg" viewBox="0 0 96 79.5">
  <defs>
    <style>
      .cls-1 {
        fill: #fff;
      }
    </style>
  </defs>
  <polygon class="cls-1" points="77.59 14.86 67.33 14.86 18.05 14.86 17.97 14.94 17.97 16.22 67.33 16.22 77.67 16.22 77.67 14.94 77.59 14.86"/>
  <g>
    <path class="cls-1" d="M15.41,17.47v44.82c.43.04.89-.05,1.31.05V17.42c-.42.1-.87.01-1.31.05Z"/>
    <g>
      <polygon class="cls-1" points="67.33 63.54 17.97 63.54 17.97 64.82 18.05 64.9 67.33 64.9 77.59 64.9 77.67 64.82 77.67 63.54 67.33 63.54"/>
      <path class="cls-1" d="M78.92,17.42v44.92c.42-.1.87,0,1.31-.05V17.47c-.43-.04-.89.05-1.31-.05Z"/>
    </g>
  </g>
  <path class="cls-1" d="M66.93,39.75c-1.08-1.21-2.19-2.4-3.29-3.6-.17-.19-.35-.38-.52-.57h-1.52l3.75,4.2-3.75,4.14h1.53l3.81-4.17Z"/>
  <path class="cls-1" d="M28.71,39.75c1.08-1.21,2.19-2.4,3.29-3.6.17-.19.35-.38.52-.57h1.52s-3.75,4.2-3.75,4.2l3.75,4.14h-1.53s-3.81-4.17-3.81-4.17Z"/>
  <path class="cls-1" d="M53.8,45.16h-11.95l-2.29,6.24h-2.78l9.59-25.94h2.97l9.55,25.94h-2.78l-2.29-6.24ZM53.01,42.98l-5.19-14.21-5.19,14.21h10.37Z"/>
</svg>