<?xml version="1.0" encoding="UTF-8"?>
<svg id="Layer_2" data-name="Layer 2" xmlns="http://www.w3.org/2000/svg" viewBox="0 0 96 79.5">
  <defs>
    <style>
      .cls-1 {
        fill: #fff;
      }
    </style>
  </defs>
  <polygon class="cls-1" points="77.73 14.86 67.48 14.86 18.2 14.86 18.12 14.94 18.12 16.22 67.48 16.22 77.81 16.22 77.81 14.94 77.73 14.86"/>
  <path class="cls-1" d="M15.52,17.47v44.82c.43.04.89-.05,1.31.05V17.42c-.42.1-.87.01-1.31.05Z"/>
  <g>
    <polygon class="cls-1" points="67.44 63.54 18.08 63.54 18.08 64.82 18.16 64.9 67.44 64.9 77.7 64.9 77.78 64.82 77.78 63.54 67.44 63.54"/>
    <path class="cls-1" d="M79.03,17.42v44.92c.42-.1.87,0,1.31-.05V17.47c-.43-.04-.89.05-1.31-.05Z"/>
  </g>
  <g>
    <rect class="cls-1" x="32.19" y="29.57" width="1.31" height="20.65"/>
    <rect class="cls-1" x="34.75" y="51.42" width="26.31" height="1.36"/>
    <rect class="cls-1" x="34.75" y="27.01" width="26.31" height="1.36"/>
    <rect class="cls-1" x="62.43" y="29.57" width="1.31" height="20.65"/>
  </g>
  <g>
    <path class="cls-1" d="M51.04,40.01c1.7-1.64,4.45-4.28,8.91-8.58.04-.05.07-.11.1-.18h-1.79c-1.05,1.01-3.3,3.18-8.15,7.86.32.31.63.6.93.89Z"/>
    <path class="cls-1" d="M37.55,31.26h-1.79c.03.06.06.13.1.18t8.91,8.58c.35-.34.66-.63.93-.89-1.49-1.43-3.98-3.84-8.15-7.86Z"/>
    <path class="cls-1" d="M47.91,41.25s0,0-1.28-1.24c-.32.31-.63.6-.92.89.57.55,1.18,1.13,1.82,1.75.1.12.29.12.39.12s.19,0,.39-.12t1.82-1.75c-.36-.35-.67-.65-.92-.89-.41.4-.84.81-1.28,1.24Z"/>
    <path class="cls-1" d="M51.04,40.01c-.35.34-.66.63-.93.89,1.49,1.44,3.98,3.84,8.15,7.86h1.79c-.03-.06-.06-.13-.1-.18t-8.91-8.58Z"/>
    <path class="cls-1" d="M44.78,40.01c-1.7,1.64-4.45,4.28-8.91,8.58-.04.05-.07.11-.1.18h1.79c1.05-1.01,3.3-3.18,8.15-7.86-.32-.31-.63-.6-.93-.89Z"/>
    <path class="cls-1" d="M49.19,40.01c.25.24.56.54.92.89.27-.26.57-.55.93-.89-.3-.29-.61-.58-.93-.89-.3.29-.61.58-.92.89Z"/>
    <path class="cls-1" d="M46.63,40.01c-.25-.24-.56-.54-.92-.89-.27.26-.57.55-.93.89.3.29.61.58.93.89.3-.29.61-.58.92-.89Z"/>
  </g>
</svg>