<?xml version="1.0" encoding="UTF-8"?>
<svg id="Layer_1" data-name="Layer 1" xmlns="http://www.w3.org/2000/svg" viewBox="0 0 720 1080">
  <defs>
    <style>
      .cls-1 {
        fill: #6f429b;
      }
    </style>
  </defs>
  <g>
    <rect class="cls-1" y=".12" width="240" height="269.88"/>
    <g>
      <path d="M87.27,171.74h65.45v-73.6h-65.45v73.6ZM130.91,122.67v24.53h-21.82v-24.53h21.82Z"/>
      <path d="M0,73.6h43.64v24.53H0v24.53h43.64v122.67h-21.82v-98.14H0v122.67h65.45v-49.07h21.82v49.07h21.82v-49.07h109.09v24.53h-87.27v24.53h109.09v-73.6h-43.64v-24.53h43.64v-24.53h-43.64V24.53h21.82v98.14h21.82V0h-65.45v49.07h-21.82V0h-21.82v49.07H21.82v-24.53h87.27V0H0v73.6ZM174.55,73.6v122.67h-109.09v-122.67h109.09Z"/>
    </g>
  </g>
  <g>
    <rect x="240.05" y=".06" width="240" height="269.88"/>
    <g>
      <path class="cls-1" d="M327.22,98.2v73.6h65.45v-73.6h-65.45ZM349.04,122.73h21.82v24.53h-21.82v-24.53Z"/>
      <path class="cls-1" d="M239.95.06v122.67h21.82V24.59h21.82v122.67h-43.64v24.53h43.64v24.53h-43.64v73.6h109.09v-24.53h-87.27v-24.53h109.09v49.07h21.82v-49.07h21.82v49.07h65.45v-122.67h-21.82v98.14h-21.82v-122.67h43.64v-24.53h-43.64v-24.53h43.64V.06h-109.09v24.53h87.27v24.53h-109.09V.06h-21.82v49.07h-21.82V.06h-65.45ZM305.4,73.66h109.09v122.67h-109.09v-122.67Z"/>
    </g>
  </g>
  <g>
    <rect class="cls-1" x="480" y=".12" width="240" height="269.88"/>
    <g>
      <path d="M567.27,171.74h65.45v-73.6h-65.45v73.6ZM610.91,122.67v24.53h-21.82v-24.53h21.82Z"/>
      <path d="M480,73.6h43.64v24.53h-43.64v24.53h43.64v122.67h-21.82v-98.14h-21.82v122.67h65.45v-49.07h21.82v49.07h21.82v-49.07h109.09v24.53h-87.27v24.53h109.09v-73.6h-43.64v-24.53h43.64v-24.53h-43.64V24.53h21.82v98.14h21.82V0h-65.45v49.07h-21.82V0h-21.82v49.07h-109.09v-24.53h87.27V0h-109.09v73.6ZM654.55,73.6v122.67h-109.09v-122.67h109.09Z"/>
    </g>
  </g>
  <g>
    <rect y="270.12" width="240" height="269.88"/>
    <g>
      <path class="cls-1" d="M152.73,368.14h-65.45v73.6h65.45v-73.6ZM130.91,392.67v24.53h-21.82v-24.53h21.82Z"/>
      <path class="cls-1" d="M240,270h-109.09v24.53h87.27v24.53h-109.09v-49.07h-21.82v49.07h-21.82v-49.07H0v122.67h21.82v-98.14h21.82v122.67H0v24.53h43.64v24.53H0v73.6h109.09v-24.53H21.82v-24.53h109.09v49.07h21.82v-49.07h21.82v49.07h65.45v-122.67h-21.82v98.14h-21.82v-122.67h43.64v-24.53h-43.64v-24.53h43.64v-73.6ZM174.55,343.6v122.67h-109.09v-122.67h109.09Z"/>
    </g>
  </g>
  <g>
    <rect x="480" y="270.12" width="240" height="269.88"/>
    <g>
      <path class="cls-1" d="M632.73,368.14h-65.45v73.6h65.45v-73.6ZM610.91,392.67v24.53h-21.82v-24.53h21.82Z"/>
      <path class="cls-1" d="M720,270h-109.09v24.53h87.27v24.53h-109.09v-49.07h-21.82v49.07h-21.82v-49.07h-65.45v122.67h21.82v-98.14h21.82v122.67h-43.64v24.53h43.64v24.53h-43.64v73.6h109.09v-24.53h-87.27v-24.53h109.09v49.07h21.82v-49.07h21.82v49.07h65.45v-122.67h-21.82v98.14h-21.82v-122.67h43.64v-24.53h-43.64v-24.53h43.64v-73.6ZM654.55,343.6v122.67h-109.09v-122.67h109.09Z"/>
    </g>
  </g>
  <g>
    <rect class="cls-1" x="240" y="270.12" width="240" height="269.88"/>
    <g>
      <path d="M327.27,441.74h65.45v-73.6h-65.45v73.6ZM370.91,392.67v24.53h-21.82v-24.53h21.82Z"/>
      <path d="M240,343.6h43.64v24.53h-43.64v24.53h43.64v122.67h-21.82v-98.14h-21.82v122.67h65.45v-49.07h21.82v49.07h21.82v-49.07h109.09v24.53h-87.27v24.53h109.09v-73.6h-43.64v-24.53h43.64v-24.53h-43.64v-122.67h21.82v98.14h21.82v-122.67h-65.45v49.07h-21.82v-49.07h-21.82v49.07h-109.09v-24.53h87.27v-24.53h-109.09v73.6ZM414.55,343.6v122.67h-109.09v-122.67h109.09Z"/>
    </g>
  </g>
  <g>
    <rect class="cls-1" y="540.12" width="240" height="269.88"/>
    <g>
      <path d="M87.27,711.74h65.45v-73.6h-65.45v73.6ZM130.91,662.67v24.53h-21.82v-24.53h21.82Z"/>
      <path d="M0,613.6h43.64v24.53H0v24.53h43.64v122.67h-21.82v-98.14H0v122.67h65.45v-49.07h21.82v49.07h21.82v-49.07h109.09v24.53h-87.27v24.53h109.09v-73.6h-43.64v-24.53h43.64v-24.53h-43.64v-122.67h21.82v98.14h21.82v-122.67h-65.45v49.07h-21.82v-49.07h-21.82v49.07H21.82v-24.53h87.27v-24.53H0v73.6ZM174.55,613.6v122.67h-109.09v-122.67h109.09Z"/>
    </g>
  </g>
  <g>
    <rect x="240.05" y="540.06" width="240" height="269.88"/>
    <g>
      <path class="cls-1" d="M327.22,638.2v73.6h65.45v-73.6h-65.45ZM349.04,662.73h21.82v24.53h-21.82v-24.53Z"/>
      <path class="cls-1" d="M239.95,540.06v122.67h21.82v-98.14h21.82v122.67h-43.64v24.53h43.64v24.53h-43.64v73.6h109.09v-24.53h-87.27v-24.53h109.09v49.07h21.82v-49.07h21.82v49.07h65.45v-122.67h-21.82v98.14h-21.82v-122.67h43.64v-24.53h-43.64v-24.53h43.64v-73.6h-109.09v24.53h87.27v24.53h-109.09v-49.07h-21.82v49.07h-21.82v-49.07h-65.45ZM305.4,613.66h109.09v122.67h-109.09v-122.67Z"/>
    </g>
  </g>
  <g>
    <rect class="cls-1" x="480" y="540.12" width="240" height="269.88"/>
    <g>
      <path d="M567.27,711.74h65.45v-73.6h-65.45v73.6ZM610.91,662.67v24.53h-21.82v-24.53h21.82Z"/>
      <path d="M480,613.6h43.64v24.53h-43.64v24.53h43.64v122.67h-21.82v-98.14h-21.82v122.67h65.45v-49.07h21.82v49.07h21.82v-49.07h109.09v24.53h-87.27v24.53h109.09v-73.6h-43.64v-24.53h43.64v-24.53h-43.64v-122.67h21.82v98.14h21.82v-122.67h-65.45v49.07h-21.82v-49.07h-21.82v49.07h-109.09v-24.53h87.27v-24.53h-109.09v73.6ZM654.55,613.6v122.67h-109.09v-122.67h109.09Z"/>
    </g>
  </g>
  <g>
    <rect y="810.12" width="240" height="269.88"/>
    <g>
      <path class="cls-1" d="M152.73,908.14h-65.45v73.6h65.45v-73.6ZM130.91,932.67v24.53h-21.82v-24.53h21.82Z"/>
      <path class="cls-1" d="M240,810h-109.09v24.53h87.27v24.53h-109.09v-49.07h-21.82v49.07h-21.82v-49.07H0v122.67h21.82v-98.14h21.82v122.67H0v24.53h43.64v24.53H0v73.6h109.09v-24.53H21.82v-24.53h109.09v49.07h21.82v-49.07h21.82v49.07h65.45v-122.67h-21.82v98.14h-21.82v-122.67h43.64v-24.53h-43.64v-24.53h43.64v-73.6ZM174.55,883.6v122.67h-109.09v-122.67h109.09Z"/>
    </g>
  </g>
  <g>
    <rect x="480" y="810.12" width="240" height="269.88"/>
    <g>
      <path class="cls-1" d="M632.73,908.14h-65.45v73.6h65.45v-73.6ZM610.91,932.67v24.53h-21.82v-24.53h21.82Z"/>
      <path class="cls-1" d="M720,810h-109.09v24.53h87.27v24.53h-109.09v-49.07h-21.82v49.07h-21.82v-49.07h-65.45v122.67h21.82v-98.14h21.82v122.67h-43.64v24.53h43.64v24.53h-43.64v73.6h109.09v-24.53h-87.27v-24.53h109.09v49.07h21.82v-49.07h21.82v49.07h65.45v-122.67h-21.82v98.14h-21.82v-122.67h43.64v-24.53h-43.64v-24.53h43.64v-73.6ZM654.55,883.6v122.67h-109.09v-122.67h109.09Z"/>
    </g>
  </g>
  <g>
    <rect class="cls-1" x="240" y="810.12" width="240" height="269.88"/>
    <g>
      <path d="M327.27,981.74h65.45v-73.6h-65.45v73.6ZM370.91,932.67v24.53h-21.82v-24.53h21.82Z"/>
      <path d="M240,883.6h43.64v24.53h-43.64v24.53h43.64v122.67h-21.82v-98.14h-21.82v122.67h65.45v-49.07h21.82v49.07h21.82v-49.07h109.09v24.53h-87.27v24.53h109.09v-73.6h-43.64v-24.53h43.64v-24.53h-43.64v-122.67h21.82v98.14h21.82v-122.67h-65.45v49.07h-21.82v-49.07h-21.82v49.07h-109.09v-24.53h87.27v-24.53h-109.09v73.6ZM414.55,883.6v122.67h-109.09v-122.67h109.09Z"/>
    </g>
  </g>
</svg>