<?xml version="1.0" encoding="UTF-8"?>
<svg id="Layer_1" data-name="Layer 1" xmlns="http://www.w3.org/2000/svg" viewBox="0 0 720 1080">
  <path d="M18.68,0l-.08,9.96,8.75.08.03,65.95h63.26s.04,13.11.04,13.11l17.9.07.14,13.29,9.28.44v26.11s18.01-.01,18.01-.01l-.04,12.91,17.96.19.12,13.43,8.85.37.23,22.13v17.05s90.16-.02,90.16-.02l.15,13.49,9.1.27.16,13.18h81.26s.06,13.01.06,13.01l17.96-.02.05,13.18,26.69-.05,63.19.14.27,13.56,27.14-.04.02,26.24h45.31s.05,26.91.05,26.91l17.94-.22.07,13.31h53.98s.1,39.82.1,39.82l90.54-.05.02,39.45,17.9-.13.18,13.63,14.57.19v39.13h-14.67s0-26.05,0-26.05l-27.25-.02-.11-13.28-17.91-.17-.08-39.54h-90.04s-.1-39.98-.1-39.98l-54.48-.02v-12.91s-17.96-.16-17.96-.16l-.13-26.75-44.98-.18-.25-25.99h-26.68s-.07-13.69-.07-13.69l-77.9.1-12.61.28-.14-13.7-17.92.14-.09-13.13h-81.24s-.06-12.99-.06-12.99l-8.81-.02-.16-13.35-45.94-.25-33.07.17-11.33-.37v-39.16s-8.99-.07-8.99-.07l-.18-13.45-17.88-.29-.27-13.22-18,.06v-26.05s-8.73-.03-8.73-.03l-.1-13.46-18.03-.28-.13-13.1-63.01-.18.02-50.81c0-.58-.62-2.43-.67-2.16V0h18.67Z"/>
  <polygon points="720 487 720 526.65 714.67 526.58 714.35 513.18 696.43 513.1 696.11 500.01 687.32 500 687.37 487.06 660.06 486.95 659.95 460.24 633.27 460.05 633.07 447.06 615.15 446.97 614.85 429.05 614.78 407.16 524.68 407.03 524.59 367.56 470.34 367.68 470.04 354.33 452.28 353.96 452.13 328 407.25 328 407.15 301.03 380.05 301.03 379.96 288 289.39 288 289.37 275.01 271.62 274.99 271.43 261.49 244.93 261.41 207.88 261.55 190.22 261.17 190.08 248.05 181.41 248.03 181.21 235 90.68 235 90.71 195.07 81.93 194.96 81.79 182.05 63.72 181.99 63.62 169.11 45.59 168.9 45.42 142.03 36.68 141.99 36.68 129 18.65 129 18.52 116.03 .02 116 .02 103 45.29 102.67 45.47 115.95 63.36 116.03 63.59 128.99 72.66 129 72.73 155.72 90.63 155.5 90.77 168.93 108.72 169.09 108.66 181.96 117.99 182.12 118.02 222.01 207.97 221.99 208.03 235 217.34 235 217.36 247.98 254.7 248.14 298.63 248.28 298.77 261.65 316.64 261.8 316.73 275 407.01 275.01 407.14 288 434.07 288 434.09 314.75 479.32 314.75 479.36 341 497.32 340.99 497.39 354.12 533.31 354.19 551.49 354.08 551.47 394 641.92 394 642.04 434 659.99 434 660.02 447.01 687.32 446.99 687.38 473.73 714.1 473.93 714.43 486.92 720 487"/>
  <path d="M720,540v13h-50.62s-.11-12.96-.11-12.96l-17.94-.06-.08-13.38-9.2-.33-.13-13.11-27.05.02.18-26.14-27.04-.06-.11-13.2-17.97-.54-.12-39.25h-90.47s0-40.01,0-40.01l-53.96.02-.04-13.01h-18.11s-.06-26.89-.06-26.89l-45.13.07-.03-26.18h-27.3s-.07-13.5-.07-13.5l-33.94.18-13.36-.02-42.53-.14-.3-13.42-17.97-.13-.18-12.96-80.98-.02-.26-12.9-9.07-.12-.05-13.5-27.6-.04-34.85.02-28.06-.18.02-25.26.1-14h-8.9s-.02-13.5-.02-13.5l-17.85-.33-.36-12.97-17.88-.24c.08-3.56.07-5.77-.57-6.97v-59c-.1-.28.66,1.09.66,1.35l.03,11.6,17.76.22.25,13.59,8.66.22-.04,26.03h17.96s.16,12.96.16,12.96l17.89.36.24,13.19,9.08.33.02,39.29,90.05-.03.4,13.38,8.84.42.08,13.1h81.24s.07,13.01.07,13.01l17.94-.02.14,13.09h90.52s.14,13.63.14,13.63l26.68.21.18,26.08h45.1s-.01,26.81-.01,26.81l17.94.1.22,13.07h54.47s-.05,39.88-.05,39.88l90.02-.04.15,39.18,17.88.13.23,13.69,27.1-.11v26.28s27.19.03,27.19.03l.17,13.12,8.53.3.26,13.35,17.82.04.26,13.18h23.78Z"/>
  <path d="M720,898v13h-50.65s-.05-26.78-.05-26.78l-9.28-.14-.04-13.02h-35.96s-.03-13.06-.03-13.06h-17.97s-.04-13.03-.04-13.03l-17.9-.07-.12-13.44-45.23-.25-.09-13.17-27.35-.02.24-26.04-44.94-.04-.29-13.54-26.92-.25-.1-13.14h-135.31s-.46-12.97-.46-12.97l-17.9-.11-.05-13.16-8.8-.18-.21-13.28-27.22-.14v-26.18s-26.94,0-26.94,0l-.38-12.89-17.74-.69-.27-39.43h-90.01s0-39.98,0-39.98l-54.33-.02-.05-12.9-18.06-.19-.18-26.82-44.69.1v-24.53c0-.42-.81-2.11-.67-1.66v-14c.49.27,1.94.88,2.57.88h24.72s.18,26.16.18,26.16l45.19-.03.05,26.82,17.93.04.07,13.12h54.08s.13,39.93.13,39.93h90.41s.02,39.18.02,39.18l17.91.15.11,13.6,27.28.02.02,26.11,26.69.04.13,12.98,9.13.5.12,13.39,17.93.06.06,13.04h135.27s.34,12.97.34,12.97l26.88.09.24,13.44,12.52-.11,32.61.02.08,26.57,27.06.05.15,12.97,44.77.08.24,13.45,17.95.25.11,13.14,18.17.13.14,12.96h36.04s.02,12.98.02,12.98l8.81.06.02,26.95h23.84Z"/>
  <path d="M720,924.1v39.9h-23.8s.02-26.72.02-26.72l-45.13.05-27.08-.23v-26.08s-9.13-.02-9.13-.02l-.19-12.97-35.78-.11-.4-13.58-17.82-.11-.05-13.22-17.97.02-.04-13.01h-45.28s-.08-13.02-.08-13.02l-26.72-.07-.28-26.81-44.89-.08-.2-12.99-27.17-.03-.1-13.04h-135.2s-.23-13.48-.23-13.48l-17.87-.39-.13-12.99-9.14-.14-.02-12.97h-27.06s-.15-26.75-.15-26.75l-26.73-.03-.13-13.17-18.02-.08.04-39.76-90.58-.03-.04-39.24-53.92-.16-.25-13.54-17.97-.14c.21-4.86.37-7.81-.5-10.1v-29l27.34-.06v26.05s18,.1,18,.1l.11,13.25,9.24-.03,45.15.37.2,39.38,89.95-.05.04,40h18.03s.16,12.95.16,12.95l27.08.15.05,26.7,27.27.19.06,13.02,8.65.02.12,12.97,17.78.12.2,13.3,40.54.07,31.19.03h28.45s35.56.2,35.56.2l.16,13.28h26.67s.26,13.01.26,13.01h45.06s.01,26.34.01,26.34l27.27.26.15,13.35,44.88.05.29,12.98,17.93.07.16,13.05,17.97-.13.05,13.47,35.92.1.11,13.35,9.01.26.18,25.89,68.75.07Z"/>
  <polygon points="720 831.54 720 884.17 714.46 883.98 714.55 858.1 705.34 857.97 705.31 844.99 669.32 844.96 669.26 831.17 651.38 831.28 651.23 818.03 633.3 818.04 633.13 805.02 588.02 805 588.03 792.08 560.72 791.88 560.65 765 515.37 765.03 515.32 752 488.7 752 488.44 738.83 353.08 738.74 352.67 725.25 334.85 725.03 334.61 712.03 325.96 711.97 325.85 699.02 298.76 699 298.61 672.2 271.55 672.13 271.38 659.01 253.38 659.02 253.3 619.13 163.25 619.2 163.16 579.82 108.8 579.88 108.63 566.46 90.69 566.08 90.67 540.01 45.72 539.97 45.28 513.23 18.67 513.03 18.53 500.03 .02 500 .02 487 45.34 487 45.5 499.98 72.66 500.01 72.73 526.86 118 526.85 118.02 553 136 552.99 136.05 566.17 160.71 566.32 175.98 566.4 190.04 566.71 190.02 606.01 280.67 606.03 280.68 645.99 298.66 646 298.72 659.02 325.7 659.08 325.89 685.9 352.64 685.9 352.69 699.01 362.01 698.99 362.01 712 380 712.05 380.03 725.09 390.74 725.39 424.35 725.43 461.12 725.38 515.3 725.27 515.44 738.92 542.63 738.85 542.7 752 587.89 752.01 588 778.53 605.71 778.56 614.76 778.82 614.8 791.93 659.94 791.99 660.03 805.01 677.98 804.99 678.03 818.12 696.1 817.98 696.39 831.38 720 831.54"/>
  <polygon points="720 990.6 720 1004 678.09 1003.92 677.9 990.21 651.34 990.28 651.17 964.01 578.68 964 578.68 937.42 570 937.06 569.79 924.06 533.69 923.97 533.54 911.01 515.51 910.96 515.54 898.11 497.44 897.92 497.22 884.22 452.34 884.36 452.02 871.03 425.37 871.05 425.25 845 380.04 844.98 379.92 831.21 352.94 831.16 352.61 818.04 217.46 818.01 217.3 804.99 199.35 805 199.34 792.03 190.07 791.89 190.03 778.24 163.3 778.33 163.13 752.04 136.03 751.99 135.99 738.82 118.04 738.66 118 698.99 27.36 699.01 27.37 659.01 .02 659 .02 646 54.66 646 54.73 685.92 145.08 685.92 144.87 724.86 162.95 725.85 163.17 738.78 190 738.97 190.02 765.02 217.31 765.02 217.43 778.56 226.01 778.64 226.28 791.97 244.36 792.06 244.67 805 379.94 805 380.03 818.04 407.14 818.07 407.33 831.35 441.32 831.45 452.06 831.4 452.12 857.95 479.36 858.06 479.39 871.07 524.65 871.02 524.7 884.12 542.63 884.91 542.75 897.89 560.66 898.02 560.69 911 596.69 911 596.8 923.86 606.01 924.18 606.01 951 677.97 950.97 678.14 977.01 705.32 977.06 705.35 990.23 720 990.6"/>
  <path d="M720,566.54v13.13l-60.62.11-35.29.09-.12-13.6-17.95-.29v-12.85s-9.27-.27-9.27-.27l-.11-12.88h-26.78s-.02-26.83-.02-26.83l-27.14-.06-.05-13.11h-17.97s-.05-39.92-.05-39.92l-90.43.02-.04-39.5-54.01-.1-.27-13.29-17.88-.19-.02-26.03h-45.32s0-27.01,0-27.01l-27.28.13-.1-13.12h-89.9s-.07-13-.07-13l-17.96.02-.04-13.28-18.83-.12-44.7-.05-17.73-.22-.14-13.14-9.21-.15-.07-13.04H.76s-.11-37.98-.11-37.98c0-.87-.74-2.49-.63-2.04v-27c.46.31,1.93,1.01,2.55,1.01l15.97.03.12,12.92,8.68.11.07,39.92,90.65.03-.07,12.98,8.72.03.16,13.17,81.12-.02.22,13.48,18.05.25.18,13.1h90.17s.07,12.99.07,12.99l27.18.04.21,26.69,44.67.16.22,26,18.24.27.04,13.2,17.44-.1,36.62.32.03,39.43h90.33s-.14,39.97-.14,39.97l18.31.08.12,12.95h26.74s.02,26.83.02,26.83h27.25s.05,13.17.05,13.17l8.77.02.29,12.96,18.1.08.17,13.44,6.68-.12,14.62.09,28.03-.24,19.33.33Z"/>
  <polygon points="72.68 0 72.68 49.68 101.41 49.51 135.9 49.31 136.05 63 154 63 154.01 75.95 163.06 76.13 163.21 102.68 181.2 102.81 181.34 116 199.34 116 199.34 129.02 208.05 128.95 208.06 169 298.63 169 298.69 182 307.49 182.01 307.56 195.15 334.72 195.1 388.75 195.23 388.87 208.62 407 208.88 407.12 221.98 497.28 222.01 497.37 235 524.65 235 524.72 261.67 569.7 261.75 569.62 287.93 587.77 288.03 588.09 301.11 642 301.08 642.01 341 720 341 720 394 705.35 394 705.29 354.17 615.2 354.06 614.87 330.12 615 314.67 588.14 314.62 560.71 314.31 560.65 301.01 542.67 301 542.66 275 497.37 275 497.26 248.15 470.41 247.95 470.18 235 380.05 235 379.99 221.99 362.07 222.01 361.85 208.4 307.1 208.4 280.72 208.35 280.61 195.2 271.61 194.97 271.4 182 181.35 182.01 181.31 142.22 172.01 142.02 172 129 154.02 129 154.01 115.99 136.02 116.01 135.99 89.19 126.91 89.05 126.75 76 108.69 76.01 108.66 62.95 45.46 62.93 45.53 46.97 45.35 0 72.68 0"/>
  <path d="M720,778.77v39.28l-5.53-.08-.15-12.88-17.94-.2-.03-12.88-18.27-.05-.14-13.38-33.3-.17-11.4-.16-.14-13.21-27.08-.05-.04-26.14-45.2.07-.22-13.58-26.67-.22-.27-13.08h-135.55s-.1-13.03-.1-13.03l-17.96.02-.02-13.17-8.94-.06-.16-13.48-26.87-.22-.02-26.09h-27.31s-.04-13.07-.04-13.07l-17.95-.19-.05-39.73h-90.54s-.12-39.99-.12-39.99h-53.96s-.04-13.01-.04-13.01h-17.97s-.07-26.79-.07-26.79l-45.26-.18-.03-26.03h-26.72s-.26-13.61-.26-13.61l-51.68.27c-4.26.02-8.19-.42-11.99.34v-14l63.94.26,26.69-.1.13,13.67,27.23.02.02,26.13,44.98.03.23,26.81h17.98s.16,13.17.16,13.17h53.95s.06,39.89.06,39.89l90.35.06.03,39.34,18.13-.06.21,13.61,26.69.16.03,26h27.03s.3,13.38.3,13.38l8.72.11.19,13.51,18.1-.09.22,13.1h135.21s.1,13.04.1,13.04l27.21-.03.15,13.34,34.53.15h10.18s.39,26.51.39,26.51l26.82-.02.04,13.01,45.28.06.05,13.28,14.65.43Z"/>
  <path d="M720,738.88v13.12h-41.97s-.06-13.12-.06-13.12l-26.6-.08-.19-26.75-45.12-.07-.09-12.99h-27.26s-.14-13.2-.14-13.2l-135.05.02-.25-13.55-17.88-.09-.12-13.08-9.16-.13-.13-12.97h-26.85s-.37-26.73-.37-26.73l-26.71-.17-.06-13.07-17.98-.02v-39.86s-90.64.06-90.64.06l-.04-39.71-53.93.17-.13-13.59-17.91.03-.02-26.09-45.33-.05-.02-26.86-27.18-.07-.14-13.03H18.7s-.18-12.94-.18-12.94l-17.85-.11.02-10.8c0-.5-.66-2.4-.69-2.14v-14l27.3.29.08,13.39,17.92.32.38,13.01h90.28s.07,12.98.07,12.98l27.04.08.26,26.7,44.76.07v26.15s18.06.03,18.06.03l.2,13.43,54.27-.3.08,39.9,89.98-.02.22,39.9,17.87.11.15,12.97h27.06s.07,26.81.07,26.81l27.25.17.05,13.01,8.72.02.26,13.01,17.73.09.3,12.97,26.98.23h28.73s31.25.03,31.25.03l13.53.02,35.11-.09.13,13.52,26.85.19v12.98s45.11.03,45.11.03l-.03,26.42,27.27-.14.12,13.63,14.59-.03Z"/>
  <polygon points="720 1030 720 1043.69 678.34 1043.38 678.01 1030.07 633.34 1030.05 633.12 1017.03 606.01 1016.99 605.99 990.32 533.44 990.22 533.58 964.03 524.69 963.99 524.62 950.95 488.59 950.98 488.34 937.32 470.55 937.33 470.16 923.98 452.32 924.06 452.21 911.04 407.34 910.98 407.11 897.97 380.04 897.9 379.99 871.01 334.74 871.08 334.65 858 307.74 858 307.34 844.97 172.19 844.93 171.96 831.42 154.06 831.05 153.95 818.14 145.17 818.04 145.01 805.04 118.03 804.99 117.96 778.27 90.73 778.39 90.66 764.99 72.69 765.05 72.67 725.3 .02 725 .02 672 9.34 672.47 9.36 712.01 99.88 712.06 100.09 752.03 118.01 751.99 118.03 765 145 765.07 144.78 791.96 172.01 792.02 172.01 804.97 181.25 805.08 181.34 817.98 199.25 818.03 199.46 831.63 217.64 831.47 244.71 831.6 297.25 831.55 309.35 831.59 334.62 831.48 334.75 844.98 361.89 845 362.05 858.01 407.16 858.01 407.16 884.68 434.05 884.34 434.17 897.98 479.32 897.99 479.35 911.01 497.33 910.99 497.36 924.05 515.26 924.11 515.4 937.63 526.67 937.42 551.43 937.65 551.66 950.96 560.66 951.02 560.7 977.04 633.11 977.05 632.98 1003.87 660.03 1004.07 660.02 1017.01 705.31 1016.99 705.35 1030.01 720 1030"/>
  <polygon points="720 1070 720 1080 678 1080 677.97 1070 633.24 1070.01 633.09 1057.01 588.17 1057 587.85 1043.31 560.73 1043.61 560.64 1017 488.66 1017 488.44 990.72 479.44 990.43 479.3 977.02 443.36 977 443.33 963.99 425.35 964.01 425.33 950.93 407.27 951.01 407.07 937.24 384.52 937.35 362.04 937.29 361.99 924 334.68 924 334.66 897.96 289.58 897.97 289.4 884.26 262.76 884.23 262.52 871.06 126.85 871.02 126.64 858 108.69 858 108.68 844.99 100.01 845.01 99.93 831.59 72.77 831.22 72.65 805.01 45.78 804.99 45.45 792.03 27.38 791.92 27.4 752 .02 752 .02 739 54.68 738.89 54.69 778.47 72.66 778.79 72.7 792 99.93 792.01 100.05 818.1 126.69 817.97 126.76 831.23 135.99 831.64 136.03 845.01 153.99 844.99 154.08 858 289.32 858 289.64 870.97 316.66 871.18 316.7 884.48 334.42 884.42 362 884.67 362.01 911 388.8 911 388.93 924.11 433.97 923.99 434.06 937.46 452.01 937.62 452.14 950.91 470.11 951.12 470.18 963.97 506.57 964.02 506.71 977 515.31 977.01 515.41 1003.98 587.94 1004.01 588.02 1030.03 614.66 1030.04 614.93 1043.65 632.43 1043.59 659.94 1043.74 660.11 1056.99 705.31 1057 705.34 1070.01 720 1070"/>
  <path d="M720,632.93v26.07l-23.87-.02-.13-12.98h-26.61s-.25-13.2-.25-13.2h-135.14s-.44-13.53-.44-13.53l-18.23-.2v-13.07s-8.65.05-8.65.05l-.04-13.02-27.31-.08-.03-26.77-26.93.06-.28-13.21-18.01-.06v-39.86s-90.13-.08-90.13-.08v-39.09s-12.61-.35-12.61-.35l-41.66-.09-.34-13.29h-18s.07-26.21.07-26.21h-44.95s-.22-26.9-.22-26.9l-26.85.03-.2-13.12-90.37-.03-.14-12.98h-17.99s-.11-13.19-.11-13.19l-81.17-.34-.13-13.08-8.62-.43-.02-11.61c0-.26-.76-1.63-.66-1.35v-13h27.32s.12,12.84.12,12.84l9.19.4.13,12.8,81.04.3.28,13.39,17.88.26.1,13,90.17.02.06,12.97,27.02.03.08,26.8,45.26-.04.02,26.24h17.98s.04,13.05.04,13.05l13.32.13,18.66.1,22.02-.05.12,39.75h90.51s0,40,0,40h17.99s.02,13.02.02,13.02l27.29.02v26.85s26.74.06,26.74.06l.26,12.9,9.06.32-.03,12.84,17.99.04.03,13.34,17.27-.03h28.72s42.58.04,42.58.04l13.39.02,33.38-.07.11,13.45,23.85.16Z"/>
  <polygon points="720 672.35 720 712 696.32 712.01 696.15 685.86 651.42 685.86 651.23 672.22 624.06 672.27 623.94 659.01 488.79 659.02 488.5 646.04 470.54 645.98 470.47 633 461.43 632.81 461.23 619.32 434.01 619.08 434.08 593.01 407.31 593 407.08 579.89 388.93 579.79 389.02 539.99 298.68 540.01 298.68 500 244.62 500 244.44 487.06 226.43 486.96 226.12 460.16 181.38 460.07 181.26 434.02 154.03 433.99 153.99 420.72 135.69 420.68 91.53 420.55 64.02 420.49 63.72 407.12 45.77 407.07 45.61 394.03 .02 394 .02 381 72.64 381 72.71 394 90.62 394 90.87 407.45 133.36 407.2 181.11 407.26 181.48 420.88 207.97 420.76 208.17 446.97 253.36 447.04 253.35 473.53 271.28 473.95 271.46 486.98 325.77 487.02 325.99 526.78 415.99 526.86 416.02 566.21 433.98 566.41 434.09 579.92 461.33 579.9 461.34 606.03 488.16 606.02 488.38 619.13 497.24 619.42 497.44 632.88 515.29 632.95 515.4 646 651.12 646 651.35 659 677.97 659.01 678.29 672.06 720 672.35"/>
  <path d="M720,593v26.11l-5.4-.04-.25-13.06-135.61.02-.09-13.03-17.94.03-.05-13.21-8.71-.18-.21-13.5-27.04-.02-.02-26.11h-27.31s-.04-13.16-.04-13.16l-17.95-.18-.04-39.66h-90.18s-.13-39.97-.13-39.97l-54.31-.04-.05-13h-17.98s0-26.79,0-26.79l-45.14-.12-.06-26.09h-26.79s-.17-13.34-.17-13.34l-71.61-.05-18.78.05-.21-13.51-17.87.08-.08-13.23H54.72s-.05-13-.05-13h-9.08s-.21-13.58-.21-13.58l-10.7.26-24.77-.04c-3.45,0-6.82.43-9.89-.64v-13l72.62.11.11,13.6,8.86.15v13.1s81.53.08,81.53.08l.18,12.94,17.88.07.18,13.29,37.33-.09,41.28.02,11.25-.1.26,13.64,27.17.14.02,26.05h45.27s.07,26.8.07,26.8h17.96s.06,13.2.06,13.2h53.95s.06,39.77.06,39.77l90.53.12.13,39.24,17.9.48.15,13.1,26.67.18.1,26.04,27.05.18.13,12.9,9.15.14.32,13.76,17.77-.03.1,13.13h113.94Z"/>
  <polygon points="118.01 0 118.02 23 181.31 23 181.38 36.16 199.27 36.01 199.38 49.23 208.14 49.37 208.11 75.95 226.12 76.02 226.34 89.21 244.16 89.16 244.44 102.47 253.34 102.9 253.35 142.15 280.06 142.13 343.79 142.15 344.04 155.53 352.64 155.93 352.9 168.99 433.96 169 434.03 182 452.02 182 452.13 195.18 470.08 195.19 542.62 195.01 542.71 208.65 569.84 208.56 569.8 235 614.73 235 614.78 261.73 632.71 261.79 632.95 274.99 687.33 275 687.34 314.81 720 314.83 720 328 660.01 328 660 288 606.03 288 605.99 274.99 587.99 275 587.96 248.03 542.69 248.11 542.66 222.01 515.56 221.96 515.4 208.33 461.11 208.45 425.39 208.39 425.26 195.05 407.31 194.98 406.92 182 326 182 325.86 169.08 316.68 168.97 316.66 155.81 305.33 155.37 253.65 155.43 226.49 155.33 226.32 116.06 217.35 115.98 217.33 102.8 199.39 102.1 199.26 89.19 181.35 89.01 181.34 63.03 172.1 62.91 171.92 49.11 154.16 49.6 153.89 36.06 90.69 36.01 90.68 0 118.01 0"/>
  <path d="M614.74,1080h-72.07l-.02-9.99-27.2-.03-.26-26.48-71.84-.21-.02-26.28h-9.29s-.08-13.09-.08-13.09l-35.83-.02-.31-13.82-17.68.53-.23-13.48-17.89-.16-.04-12.98h-45.28s-.06-13.08-.06-13.08l-27.09.1-.25-26.9-44.6-.14-.15-12.95-27.17-.03-.09-13.04H82.25s-.47-13.69-.47-13.69l-17.93-.04-.18-13.09-8.99-.19-.02-12.95h-27.31s-.02-26.74-.02-26.74H.87s-.23-11.15-.23-11.15c-.01-.53-.57-2.3-.62-2.11v-53h9.34s0,40,0,40h17.98s.06,13.1.06,13.1l27.28-.14.05,26.94,27.13.15.09,12.93,8.74.02v12.95s17.87.25,17.87.25l.35,13.37,73.8-.05h33.8s27.69.12,27.69.12l.43,13.31,26.69.04.29,13.01h45.08s0,26.29,0,26.29l27.17.4.22,13.3,44.83.02.08,12.91,18.08.16.18,12.9,18.02.05.12,13.61,11.92-.07h23.91s.22,13.24.22,13.24l8.83.27-.03,26.08,72.38-.16.07,26.98,26.99.02.17,12.98h44.84s.06,10,.06,10Z"/>
  <polygon points="226.01 0 226.3 9.86 244.31 10.05 244.55 22.98 253.32 23.01 253.4 49.59 271.23 49.45 271.45 62.96 289.33 62.97 289.45 75.92 298.68 76.04 298.68 116 388.71 116 388.94 128.9 397.97 129.04 398.09 142.22 479.21 142.06 479.46 155.63 497.27 155.94 497.47 168.99 587.85 169.01 588.01 182 614.71 182 614.91 208.51 649.26 208.63 659.99 208.87 660.01 235 678 235 678.16 247.98 720 248.19 720 301.08 705.35 301.12 705.3 261.5 693.34 261.52 663.32 261.51 651.34 261.19 651.18 248.16 633.16 248.08 633.19 222.02 588.03 222 587.91 195.15 560.71 195 560.62 182 470.57 182 470.3 169.03 452.35 168.93 452.1 155.37 370.83 155.4 370.72 142.24 362.04 142.09 361.95 129 271.34 129.01 271.36 89.35 262.69 88.99 262.67 76 244.67 76 244.5 62.95 226.61 62.87 226.14 36.14 217.36 36.03 217.33 22.99 199.37 23.01 199.27 9.95 136.06 10.01 136.01 0 226.01 0"/>
  <polygon points="497.34 1080 470.4 1080 470.32 1070.01 398.02 1070 398 1043.54 389.24 1043.19 388.84 1030.16 352.88 1029.99 352.76 1017 334.7 1017 334.66 1004.02 316.76 1003.89 316.62 990.51 271.56 990.11 271.4 977.05 244.6 977.03 244.52 950.99 199.39 950.95 199.24 937.32 172.16 937.19 171.93 924.02 36.75 924.03 36.65 911 18.66 911 18.55 898.09 9.42 897.79 9.37 884.44 .02 884 .02 845 9.34 844.96 9.36 871.05 36.56 871.13 36.8 884.54 45.35 884.71 45.6 898.01 63.43 897.94 63.51 910.98 199.27 911.01 199.38 924.02 226.29 924.08 226.51 937.55 238.67 937.4 271.42 937.39 271.42 963.97 298.66 964.01 298.7 976.98 343.83 977.18 344.06 990.46 361.96 990.39 362.08 1003.97 380 1004.01 380.03 1017.01 415.99 1017 416.03 1029.98 425.27 1030.41 425.36 1057.01 497.33 1056.99 497.34 1080"/>
  <polygon points="298.68 0 298.67 23 316.67 22.99 316.68 35.96 334.61 36.18 334.78 49.57 343.92 49.84 344.03 89.23 395.98 89.1 433.99 89.25 434.21 102.53 443.32 102.8 443.38 116 524.63 116 524.69 129.01 542.65 129 542.73 142.13 588.67 142.09 632.88 142.08 633.25 155.56 659.99 155.82 660.01 182.01 705.33 182 705.34 208.65 720 208.69 720 235 696.51 235.01 696.24 222.02 678.27 221.98 677.92 195.1 633.14 195.07 633.06 169.01 606.03 169 605.92 155.28 588.74 155.38 515.57 155.31 515.38 141.99 497.38 142.12 497.29 129 416.15 128.99 415.95 116 407.37 115.99 407.09 102.35 370.92 102.39 328.66 102.42 316.68 102.54 316.67 62.99 307.99 62.82 307.64 49.31 289.62 49.07 289.49 36 271.32 36 271.49 10.06 262.66 9.73 262.68 0 298.68 0"/>
  <polygon points="362.01 0 362.01 10.02 379.98 9.93 380.02 22.99 388.73 23.03 388.93 39 388.9 62.96 479.24 63 479.45 76 488.38 76.1 488.62 89.08 569.42 89.18 569.86 102.6 587.85 102.9 588.04 116 677.95 116 678.03 129.01 705.33 128.99 705.34 155.58 720 155.74 720 169 678.18 168.98 677.97 142.04 651.38 142.15 650.98 129 560.71 129 560.65 115.99 542.68 116.01 542.65 102.75 524.62 102.38 461.41 102.29 461.31 89.04 452.32 88.89 452.07 76 362.01 76.01 362.01 36.02 352.69 36 352.69 23 334.69 23 334.65 9.93 316.76 9.98 316.68 0 362.01 0"/>
  <polygon points="380.01 1080 352.67 1080 352.68 1070 344.01 1070 343.99 1056.99 307.88 1057 307.61 1043.46 289.73 1043.3 289.35 1030.12 271.38 1030.12 271.32 1017 226.55 1017.01 226.29 1004.04 199.37 1003.96 199.29 977.09 154.03 976.97 154 964.02 126.97 963.96 126.67 950.98 .02 951 .02 924 18.42 924.09 18.71 937.62 109.99 937.51 136.29 937.44 153.96 937.49 154.1 950.92 181.17 951.03 181.35 964 226.17 964 226.22 990.37 253.29 990.63 253.44 1003.99 298.65 1004 298.69 1017.01 316.66 1016.99 316.71 1030.05 334.63 1030.33 334.79 1043.78 370.65 1043.72 370.8 1056.91 380.01 1057.04 380.01 1080"/>
  <polygon points="325.76 1080 262.65 1080 262.59 1070.04 244.58 1069.98 244.34 1057.01 226.49 1057 226.28 1043.42 208.27 1043.49 181.4 1043.24 181.24 1030.17 154.02 1030.04 154 1004 108.79 1003.95 108.6 990.45 82.01 990.17 81.77 977.05 .02 977 .02 964 108.62 964 108.73 977.14 135.97 976.95 136.14 990.61 181.33 990.65 181.35 1017 208.05 1017 208.18 1029.99 220.03 1030.13 253.23 1030.07 253.46 1043.74 271.3 1043.72 271.42 1056.96 289.39 1057.02 289.52 1069.96 325.65 1070.05 325.76 1080"/>
  <polygon points="434.01 0 434.02 36.05 524.64 36.04 524.74 49.68 533.29 49.88 533.55 63 614.69 62.98 614.91 75.98 632.75 76.01 632.95 89.22 720 89.12 720 116 696.32 115.96 696.07 102.49 678.74 102.45 606.08 102.39 605.91 89.14 587.98 89 587.96 76 506.71 76 506.66 63.03 497.45 62.91 497.19 49.26 407.32 49.23 407.13 10.16 397.98 9.84 398.01 0 434.01 0"/>
  <polygon points="479.34 0 479.5 9.98 569.59 9.99 569.87 22.99 578.63 23 578.76 36.13 659.98 36.09 660.04 49.23 677.99 49.72 678.18 62.97 720 63 720 76 651.36 76 651.16 62.97 633.32 62.85 633.09 49.19 579.5 49.33 551.58 49.21 551.5 36.05 542.69 36.04 542.61 23.01 452.39 22.98 452.01 0 479.34 0"/>
  <polygon points="226.37 1080 181.31 1080 181.2 1070.01 136.03 1070 136 1057 108.79 1056.99 108.66 1030.02 63.88 1030.05 63.67 1017.04 36.71 1016.99 36.63 1003.92 .02 1004 .02 991 15.38 990.6 29.37 990.48 63.3 990.65 63.67 1004 90.66 1004 90.74 1017.01 135.99 1017 136.07 1043.61 163.09 1043.79 163.28 1057.01 207.99 1056.99 208.14 1069.96 226.33 1070.07 226.37 1080"/>
  <polygon points="118.01 1080 63.58 1080 63.65 1057.01 18.67 1057 18.54 1043.6 .02 1043 .02 1017 18.53 1017.03 18.69 1030.07 45.35 1030.24 45.63 1043.64 90.66 1043.82 90.69 1070.01 117.99 1069.99 118.01 1080"/>
  <polygon points="624 0 624.15 9.98 705.29 10 705.35 23.01 720 23 720 49.28 696.51 49.21 696.22 36.02 678.02 36 677.97 23 596.91 22.99 596.65 10.07 588.01 9.72 588 0 624 0"/>
  <polygon points="45.37 1080 .02 1080 .02 1070 45.3 1070 45.37 1080"/>
</svg>