<?xml version="1.0" encoding="UTF-8"?>
<svg id="Layer_2" data-name="Layer 2" xmlns="http://www.w3.org/2000/svg" viewBox="0 0 96 79.5">
  <defs>
    <style>
      .cls-1 {
        fill: #fff;
      }
    </style>
  </defs>
  <polygon class="cls-1" points="79.25 14.81 68.99 14.81 19.71 14.81 19.63 14.89 19.63 16.17 68.99 16.17 79.33 16.17 79.33 14.89 79.25 14.81"/>
  <path class="cls-1" d="M17.07,17.42v44.82c.43.04.89-.05,1.31.05V17.37c-.42.1-.87.01-1.31.05Z"/>
  <g>
    <polygon class="cls-1" points="68.99 63.49 19.63 63.49 19.63 64.77 19.71 64.85 68.99 64.85 79.25 64.85 79.33 64.77 79.33 63.49 68.99 63.49"/>
    <path class="cls-1" d="M80.58,17.37v44.92c.42-.1.87-.01,1.31-.05V17.42c-.43-.04-.89.05-1.31-.05Z"/>
  </g>
</svg>