<?xml version="1.0" encoding="UTF-8"?>
<svg id="Layer_2" data-name="Layer 2" xmlns="http://www.w3.org/2000/svg" viewBox="0 0 96 79.5">
  <defs>
    <style>
      .cls-1 {
        fill: #fff;
      }
    </style>
  </defs>
  <g>
    <polygon class="cls-1" points="19.63 16.17 68.99 16.17 68.99 14.81 19.71 14.81 19.63 14.89 19.63 16.17"/>
    <path class="cls-1" d="M17.07,17.42v34.48h1.31V17.37c-.42.1-.87.01-1.31.05Z"/>
  </g>
  <g>
    <polygon class="cls-1" points="79.33 16.17 68.99 16.17 68.99 14.81 79.25 14.81 79.33 14.89 79.33 16.17"/>
    <path class="cls-1" d="M81.89,17.42v34.48h-1.31V17.37c.42.1.87.01,1.31.05Z"/>
  </g>
  <g>
    <polygon class="cls-1" points="19.63 63.49 68.99 63.49 68.99 64.85 19.71 64.85 19.63 64.77 19.63 63.49"/>
    <path class="cls-1" d="M17.07,62.24v-10.34h1.31v10.39c-.42-.1-.87-.01-1.31-.05Z"/>
  </g>
  <g>
    <polygon class="cls-1" points="79.33 63.49 68.99 63.49 68.99 64.85 79.25 64.85 79.33 64.77 79.33 63.49"/>
    <path class="cls-1" d="M81.89,62.24v-10.34h-1.31v10.39c.42-.1.87-.01,1.31-.05Z"/>
  </g>
</svg>