<?xml version="1.0" encoding="UTF-8"?>
<svg id="Layer_2" data-name="Layer 2" xmlns="http://www.w3.org/2000/svg" viewBox="0 0 96 79.5">
  <defs>
    <style>
      .cls-1 {
        fill: #fff;
      }

      .cls-2 {
        fill: none;
        stroke: #fff;
        stroke-miterlimit: 333.33;
        stroke-width: 1.2px;
      }
    </style>
  </defs>
  <polygon class="cls-1" points="77.7 14.86 67.44 14.86 18.16 14.86 18.08 14.94 18.08 16.22 67.44 16.22 77.78 16.22 77.78 14.94 77.7 14.86"/>
  <path class="cls-1" d="M15.52,17.47v44.82c.43.04.89-.05,1.31.05V17.42c-.42.1-.87.01-1.31.05Z"/>
  <g>
    <polygon class="cls-1" points="67.44 63.54 18.08 63.54 18.08 64.82 18.16 64.9 67.44 64.9 77.7 64.9 77.78 64.82 77.78 63.54 67.44 63.54"/>
    <path class="cls-1" d="M79.03,17.42v44.92c.42-.1.87,0,1.31-.05V17.47c-.43-.04-.89.05-1.31-.05Z"/>
  </g>
  <g>
    <rect class="cls-1" x="35.04" y="29.57" width="1.31" height="20.65"/>
    <rect class="cls-1" x="37.6" y="51.42" width="20.69" height="1.36"/>
    <rect class="cls-1" x="37.6" y="27.01" width="20.69" height="1.36"/>
    <rect class="cls-1" x="59.53" y="29.57" width="1.31" height="20.65"/>
  </g>
  <circle class="cls-2" cx="47.94" cy="39.9" r="4.89"/>
  <circle class="cls-1" cx="55.04" cy="32.75" r="1.47"/>
</svg>