<?xml version="1.0" encoding="UTF-8"?>
<svg id="Layer_1" data-name="Layer 1" xmlns="http://www.w3.org/2000/svg" viewBox="0 0 941.43 272.86">
  <defs>
    <style>
      .cls-1 {
        fill: #daff3e;
      }
    </style>
  </defs>
  <g>
    <path class="cls-1" d="M317.06,103.94h-76.71c-2.05,0-3.72-1.66-3.72-3.72s1.66-3.72,3.72-3.72h76.71c2.05,0,3.72,1.66,3.72,3.72s-1.66,3.72-3.72,3.72Z"/>
    <path class="cls-1" d="M299.75,179.35c-.28,0-.55-.03-.83-.1-2-.46-3.25-2.45-2.79-4.45l17.31-75.4c.46-2,2.46-3.25,4.45-2.79,2,.46,3.25,2.45,2.79,4.45l-17.31,75.4c-.39,1.72-1.93,2.89-3.62,2.89Z"/>
    <path class="cls-1" d="M222.8,180.12c-.28,0-.56-.03-.84-.1-2-.46-3.25-2.45-2.79-4.45l27.14-117.91c.46-2,2.45-3.25,4.46-2.79,2,.46,3.25,2.46,2.79,4.46l-27.14,117.91c-.4,1.72-1.93,2.88-3.62,2.88Z"/>
    <path class="cls-1" d="M439.3,179.34h-139.39c-2.05,0-3.72-1.66-3.72-3.72s1.66-3.72,3.72-3.72h136.43l15.6-67.97h-70.53c-2.05,0-3.72-1.66-3.72-3.72s1.66-3.72,3.72-3.72h75.2c1.13,0,2.2.52,2.91,1.4.71.89.97,2.04.72,3.15l-17.31,75.4c-.39,1.69-1.89,2.88-3.62,2.88Z"/>
    <path class="cls-1" d="M785.01,179.34c-.28,0-.55-.03-.83-.1-2-.46-3.25-2.45-2.79-4.45l17.31-75.4c.39-1.69,1.89-2.88,3.62-2.88h76.96c2.05,0,3.72,1.66,3.72,3.72s-1.66,3.72-3.72,3.72h-74l-16.65,72.52c-.39,1.72-1.93,2.89-3.62,2.89Z"/>
    <path class="cls-1" d="M211.85,180.13h0l-170.7-.27c-2.05,0-3.71-1.67-3.71-3.72,0-2.05,1.67-3.71,3.72-3.71h0l170.7.27c2.05,0,3.71,1.67,3.71,3.72,0,2.05-1.67,3.71-3.72,3.71Z"/>
    <path class="cls-1" d="M72.27,221.31c-.28,0-.55-.03-.83-.1-2-.46-3.25-2.45-2.79-4.45l26.94-117.36c.46-2,2.46-3.25,4.45-2.79,2,.46,3.25,2.45,2.79,4.45l-26.94,117.36c-.39,1.72-1.93,2.89-3.62,2.89Z"/>
    <path class="cls-1" d="M784.97,179.34h-141.2c-1.13,0-2.2-.52-2.91-1.4-.71-.89-.97-2.04-.72-3.15l17.31-75.4c.39-1.69,1.89-2.88,3.62-2.88h76.41c2.05,0,3.72,1.66,3.72,3.72s-1.66,3.72-3.72,3.72h-73.45l-15.6,67.97h136.53c2.05,0,3.72,1.66,3.72,3.72s-1.66,3.72-3.72,3.72Z"/>
    <path class="cls-1" d="M158.76,180.12c-.28,0-.55-.03-.83-.1-2-.46-3.25-2.45-2.79-4.45l16.44-71.63h-72.37c-2.05,0-3.72-1.66-3.72-3.72s1.66-3.72,3.72-3.72h77.03c1.13,0,2.2.52,2.91,1.4.71.89.97,2.04.71,3.15l-17.49,76.18c-.39,1.72-1.93,2.89-3.62,2.89Z"/>
    <path class="cls-1" d="M222.74,180.13h0l-182.02-.27c-2.05,0-3.71-1.67-3.71-3.72,0-2.05,1.67-3.71,3.72-3.71h0l182.02.27c2.05,0,3.71,1.67,3.71,3.72,0,2.05-1.67,3.71-3.72,3.71Z"/>
    <path class="cls-1" d="M602.74,212.29c-.55,0-1.09-.12-1.61-.37-.76-.36-1.35-.96-1.71-1.68l-103.95-136.78-129.09,105.46c-1.59,1.3-3.93,1.06-5.23-.53-1.3-1.59-1.06-3.93.53-5.23l131.89-107.74c.39-.36.86-.64,1.38-.81,1.5-.48,3.14.02,4.1,1.28l104.39,137.36,131.99-105.98c1.6-1.29,3.94-1.03,5.22.57,1.28,1.6,1.03,3.94-.57,5.22l-135.02,108.4c-.67.54-1.5.82-2.33.82Z"/>
  </g>
  <g>
    <path class="cls-1" d="M596.11,104.5h-75.2c-2.05,0-3.72-1.66-3.72-3.72s1.66-3.72,3.72-3.72h75.2c2.05,0,3.72,1.66,3.72,3.72s-1.66,3.72-3.72,3.72Z"/>
    <path class="cls-1" d="M577.73,179.9h-74.12c-2.05,0-3.72-1.66-3.72-3.72s1.66-3.72,3.72-3.72h74.12c2.05,0,3.72,1.66,3.72,3.72s-1.66,3.72-3.72,3.72Z"/>
  </g>
</svg>