<?xml version="1.0" encoding="UTF-8"?>
<svg id="Layer_2" data-name="Layer 2" xmlns="http://www.w3.org/2000/svg" viewBox="0 0 96 79.5">
  <defs>
    <style>
      .cls-1 {
        fill: #fff;
      }
    </style>
  </defs>
  <g>
    <polygon class="cls-1" points="77.96 14.75 67.69 14.75 18.41 14.75 18.33 14.83 18.33 16.11 67.69 16.11 78.04 16.11 78.04 14.83 77.96 14.75"/>
    <path class="cls-1" d="M15.78,17.36v44.82c.43.04.89-.05,1.31.05V17.31c-.42.1-.87.01-1.31.05Z"/>
    <g>
      <polygon class="cls-1" points="67.69 63.43 18.33 63.43 18.33 64.71 18.41 64.79 67.69 64.79 77.96 64.79 78.04 64.71 78.04 63.43 67.69 63.43"/>
      <path class="cls-1" d="M79.29,17.31v44.92c.42-.1.87,0,1.31-.05V17.36c-.43-.04-.89.05-1.31-.05Z"/>
    </g>
  </g>
  <g>
    <g>
      <rect class="cls-1" x="35.28" y="38.23" width="1.31" height="11.85"/>
      <g>
        <rect class="cls-1" x="37.84" y="51.28" width="20.69" height="1.36"/>
        <rect class="cls-1" x="59.78" y="38.23" width="1.31" height="11.85"/>
      </g>
    </g>
    <g>
      <path class="cls-1" d="M42.36,32.23c1.93-1.78,3.87-3.58,5.82-5.33l7.94,7.25-.93.88-.08-.03-6.88-6.22-6.97,6.22c-.07.04-.11,0-.17-.03-.22-.12-.56-.69-.84-.83.71-.64,1.42-1.28,2.12-1.92Z"/>
      <rect class="cls-1" x="47.52" y="28.7" width="1.34" height="17.73"/>
    </g>
  </g>
</svg>